# AST/ASF file generated using VICON BodyLanguage
# -----------------------------------------------
:version 1.10
:name VICON
:units
  mass 1.0
  length 0.45
  angle deg
:documentation
   .ast/.asf automatically generated from VICON data using
   VICON BodyBuilder and BodyLanguage model FoxedUp or BRILLIANT.MOD
:root
   order TX TY TZ RX RY RZ
   axis XYZ
   position 0 0 0  
   orientation 0 0 0 
:bonedata
  begin
     id 1 
     name lhipjoint
     direction 0.711131 -0.61297 0.344326 
     length 2.29162 
     axis 0 0 0  XYZ
  end
  begin
     id 2 
     name lfemur
     direction 0.34202 -0.939693 0  
     length 6.71424  
     axis 0 0 20  XYZ
    dof rx ry rz
    limits (-160.0 20.0)
           (-70.0 70.0)
           (-60.0 70.0)
  end
  begin
     id 3 
     name ltibia
     direction 0.34202 -0.939693 0   
     length 6.7087   
     axis 0 0 20   XYZ
    dof rx
    limits (-10.0 170.0)
  end
  begin
     id 4 
     name lfoot
     direction 0.0230374 -0.0632947 0.997729   
     length 1.56743   
     axis -90 7.62852e-016 20   XYZ
    dof rx rz
    limits (-45.0 90.0)
           (-70.0 20.0)
  end
  begin
     id 5 
     name ltoes
     direction 1.53585e-011 -4.21885e-011 1   
     length 0.802914   
     axis -90 7.62852e-016 20   XYZ
    dof rx
    limits (-90.0 20.0)
  end
  begin
     id 6 
     name rhipjoint
     direction -0.733192 -0.592884 0.333043   
     length 2.36925  
     axis 0 0 0  XYZ 
  end
  begin
     id 7 
     name rfemur
     direction -0.34202 -0.939693 0   
     length 6.67027   
     axis 0 0 -20   XYZ
    dof rx ry rz
    limits (-160.0 20.0)
           (-70.0 70.0)
           (-70.0 60.0)
  end
  begin
     id 8 
     name rtibia
     direction -0.34202 -0.939693 0   
     length 6.6862   
     axis 0 0 -20   XYZ
    dof rx
    limits (-10.0 170.0)
 end
 begin
     id 9 
     name rfoot
     direction -0.0949739 -0.260939 0.960672   
     length 1.67698  
     axis -90 -7.62852e-016 -20   XYZ
    dof rx rz
    limits (-45.0 90.0)
           (-20.0 70.0)
  end
  begin
     id 10 
     name rtoes
     direction -1.5353e-011 -4.21868e-011 1   
     length 0.846298   
     axis -90 -7.62852e-016 -20   XYZ
    dof rx
    limits (-90.0 20.0)
  end
  begin
     id 11 
     name lowerback
     direction -0.0206828 0.999785 -0.00109866   
     length 2.04382   
     axis 0 0 0   XYZ
    dof rx ry rz
    limits (-20.0 45.0)
           (-30.0 30.0)
           (-30.0 30.0)
  end
  begin
     id 12 
     name upperback
     direction -0.0105003 0.999727 -0.0208904   
     length 2.04538   
     axis 0 0 0   XYZ
    dof rx ry rz
    limits (-20.0 45.0)
           (-30.0 30.0)
           (-30.0 30.0)
  end
  begin
     id 13 
     name thorax
     direction -0.000416255 0.999808 -0.0196023   
     length 2.0399   
     axis 0 0 0   XYZ
    dof rx ry rz
    limits (-20.0 45.0)
           (-30.0 30.0)
           (-30.0 30.0)
  end
  begin
     id 14 
     name lowerneck
     direction 0.0627861 0.989205 0.13241   
     length 1.46207   
     axis 0 0 0   XYZ
    dof rx ry rz
    limits (-20.0 45.0)
           (-30.0 30.0)
           (-30.0 30.0)
  end
  begin
     id 15 
     name upperneck
     direction 0.00627179 0.994526 0.104303   
     length 1.41419   
     axis 0 0 0   XYZ
    dof rx ry rz
    limits (-20.0 45.0)
           (-30.0 30.0)
           (-30.0 30.0)
  end
  begin
     id 16
     name head
     direction -0.00443838 0.999688 0.0245968  
     length 1.50718  
     axis 0 0 0   XYZ
    dof rx ry rz
    limits (-20.0 45.0)
           (-30.0 30.0)
           (-30.0 30.0)
  end
  begin
     id 17 
     name lclavicle
     direction 0.758742 0.650995 -0.0227258  
     length 2.86888  
     axis 0 0 0   XYZ
    dof ry rz
    limits (-20.0 10.0)
           (0.0 20.0)
  end
  begin
     id 18 
     name lhumerus
     direction 1 -4.48962e-011 1.06664e-027   
     length 4.65776   
     axis -180 -30 -90   XYZ
    dof rx ry rz
    limits (-60.0 90.0)
           (-90.0 90.0)
           (-90.0 90.0)
  end
  begin
     id 19
     name lradius
     direction 1 -4.48968e-011 1.40404e-026   
     length 3.55539   
     axis -180 -30 -90   XYZ
    dof rx
    limits (-10.0 170.0)
  end
  begin
     id 20
     name lwrist
     direction 1 -4.48976e-011 3.32647e-026   
     length 1.77769   
     axis -2.20186e-014 90 90   XYZ
    dof ry
    limits (-180.0 0.0)
 end
  begin
     id 21 
     name lhand
     direction 1 -4.48982e-011 6.65293e-026   
     length 0.707264   
     axis -4.24514e-014 90 90   XYZ
    dof rx rz
    limits (-90.0 90.0)
           (-45.0 45.0)
  end
  begin
     id 22 
     name lfingers
     direction 1 -4.48966e-011 1.33059e-025   
     length 0.570215   
     axis -8.49028e-014 90 90   XYZ
    dof rx
    limits (0.0 90.0)
  end
  begin
     id 23
     name lthumb
     direction 0.707107 -6.3493e-011 0.707107   
     length 0.818718   
     axis -90 45 2.85299e-015   XYZ
    dof rx rz
    limits (-45.0 45.0)
           (-45.0 45.0)
  end
  begin
     id 24 
     name rclavicle
     direction -0.870343 0.482028 -0.100759   
     length 3.2251  
     axis 0 0 0   XYZ 
    dof ry rz
    limits (-10.0 20.0)
           (-20.0 0.0)
  end
  begin
     id 25 
     name rhumerus
     direction -1 -4.48974e-011 -9.45849e-028  
     length 4.71925   
     axis -180 30 90   XYZ
    dof rx ry rz
    limits (-90.0 60.0)
           (-90.0 90.0)
           (-90.0 90.0)
  end
  begin
     id 26 
     name rradius
     direction -1 -4.48965e-011 1.17607e-026   
     length 3.5699   
     axis -180 30 90   XYZ
    dof rx
    limits (-10.0 170.0)
  end
  begin
     id 27 
     name rwrist
     direction -1 -4.48968e-011 3.32647e-026   
     length 1.78495   
     axis -2.20186e-014 -90 -90   XYZ
    dof ry
    limits (-180.0 0.0)
  end
  begin
     id 28
     name rhand
     direction -1 -4.48995e-011 6.65293e-026   
     length 0.507757   
     axis -4.24514e-014 -90 -90   XYZ
    dof rx rz
    limits (-90.0 90.0)
           (-45.0 45.0)
  end
  begin
     id 29
     name rfingers
     direction -1 -4.48864e-011 1.33059e-025   
     length 0.409367   
     axis -8.49028e-014 -90 -90   XYZ
    dof rx
    limits (0.0 90.0)
  end
  begin
     id 30
     name rthumb
     direction -0.707107 -6.3494e-011 0.707107   
     length 0.587771   
     axis -90 -45 -2.85299e-015   XYZ
    dof rx rz
    limits (-45.0 45.0)
           (-45.0 45.0)
  end
:hierarchy
  begin
    root lhipjoint rhipjoint lowerback
    lhipjoint lfemur
    lfemur ltibia
    ltibia lfoot
    lfoot ltoes
    rhipjoint rfemur
    rfemur rtibia
    rtibia rfoot
    rfoot rtoes
    lowerback upperback
    upperback thorax
    thorax lowerneck lclavicle rclavicle
    lowerneck upperneck
    upperneck head
    lclavicle lhumerus
    lhumerus lradius
    lradius lwrist
    lwrist lhand lthumb
    lhand lfingers
    rclavicle rhumerus
    rhumerus rradius
    rradius rwrist
    rwrist rhand rthumb
    rhand rfingers
  end

#!OML:ASF E:\Steps\Project 1\Capture day 1\Session 2\Subject.ASF
:FULLY-SPECIFIED
:DEGREES
16
root -1.16994 19.6407 20.3446 -152.312 -2.08352 178.105
lowerback -29.4555 -2.93098 -7.55355
upperback -1.80873 -2.08525 -0.145381
thorax 13.6854 -1.7013 3.05314
lowerneck -4.69736 -4.42037 0.0797474
upperneck 13.0881 -6.01197 3.38932
head 4.80077 -2.56694 0.711819
rclavicle -2.98177e-016 1.15295e-014
rhumerus -41.121 -18.8663 -76.5048
rradius 34.0153
rwrist -3.90874
rhand -3.42093 -56.8175
rfingers 7.12502
rthumb 22.3099 -85.5495
lclavicle -2.98177e-016 1.15295e-014
lhumerus -33.1164 8.60221 78.4259
lradius 25.3401
lwrist -1.75048
lhand -21.4916 -11.6058
lfingers 7.12502
lthumb 4.89968 18.3175
rfemur -25.1642 5.68868 20.3985
rtibia 7.3525
rfoot -18.3498 -2.67179
rtoes -25.7326
lfemur -24.1015 -7.5042 -22.1637
ltibia 7.39997
lfoot -7.40129 -1.77984
ltoes -14.0145
17
root -1.1683 19.6414 20.3443 -152.324 -2.04857 178.094
lowerback -29.4046 -2.9112 -7.55894
upperback -1.80383 -2.05748 -0.16087
thorax 13.6646 -1.68747 3.05209
lowerneck -4.74796 -4.28935 0.00916445
upperneck 12.7663 -5.83278 3.2957
head 4.70631 -2.50582 0.705665
rclavicle -2.5842e-015 -9.93923e-015
rhumerus -41.1318 -18.8917 -76.5062
rradius 34.0903
rwrist -3.91362
rhand -2.71897 -58.8351
rfingers 7.12502
rthumb 22.9837 -87.4849
lclavicle -2.5842e-015 -9.93923e-015
lhumerus -33.1071 8.6366 78.3936
lradius 25.291
lwrist -1.76314
lhand -21.1836 -11.3231
lfingers 7.12502
lthumb 5.19706 18.5931
rfemur -25.1403 5.48072 20.4313
rtibia 7.30879
rfoot -18.2609 -2.39867
rtoes -25.4609
lfemur -24.0787 -7.45159 -22.1847
ltibia 7.3692
lfoot -7.40693 -1.79332
ltoes -14.1624
18
root -1.16793 19.6403 20.3441 -152.293 -2.04365 178.042
lowerback -29.4202 -2.92093 -7.59507
upperback -1.79654 -2.05539 -0.169138
thorax 13.6798 -1.68898 3.0626
lowerneck -4.95528 -4.80704 0.45201
upperneck 13.6155 -6.52289 2.983
head 4.9903 -2.80147 0.486836
rclavicle -3.97569e-016 1.07344e-014
rhumerus -41.179 -18.9409 -76.4517
rradius 34.285
rwrist -3.61484
rhand -2.36483 -59.0582
rfingers 7.12502
rthumb 23.3234 -87.6653
lclavicle -3.97569e-016 1.07344e-014
lhumerus -33.192 8.60181 78.3961
lradius 25.3682
lwrist -1.6419
lhand -20.953 -11.1267
lfingers 7.12502
lthumb 5.41973 18.784
rfemur -25.18 5.17883 20.4303
rtibia 7.30243
rfoot -18.1973 -2.08261
rtoes -24.9791
lfemur -24.1016 -7.41717 -22.258
ltibia 7.34812
lfoot -7.44923 -1.85874
ltoes -15.4614
19
root -1.16916 19.6396 20.3433 -152.291 -2.02141 178.01
lowerback -29.4314 -2.93316 -7.60494
upperback -1.77104 -2.06395 -0.151917
thorax 13.7165 -1.69361 3.08277
lowerneck -4.75566 -4.42235 0.0778475
upperneck 12.8438 -6.00694 3.19781
head 4.72943 -2.59109 0.653974
rclavicle -1.20265e-014 1.51076e-014
rhumerus -41.1812 -19.0323 -76.3125
rradius 34.112
rwrist -3.45439
rhand -3.7818 -55.5248
rfingers 7.12502
rthumb 21.9635 -84.2979
lclavicle -1.20265e-014 1.51076e-014
lhumerus -33.2109 8.67183 78.4219
lradius 25.3095
lwrist -1.66126
lhand -21.0155 -11.2625
lfingers 7.12502
lthumb 5.35939 18.6498
rfemur -25.185 5.1209 20.3972
rtibia 7.33177
rfoot -18.2472 -2.05049
rtoes -24.9386
lfemur -24.0822 -7.47258 -22.3068
ltibia 7.34731
lfoot -7.48444 -1.8051
ltoes -15.8838
20
root -1.1706 19.64 20.3407 -152.328 -1.977 178.032
lowerback -29.4273 -2.92622 -7.55861
upperback -1.72826 -2.06422 -0.119544
thorax 13.7656 -1.69048 3.09327
lowerneck -4.51095 -4.06105 -0.51984
upperneck 11.6224 -5.52334 3.72905
head 4.8202 -2.40043 1.06469
rclavicle 1.49089e-015 2.3059e-014
rhumerus -41.0731 -18.936 -76.3413
rradius 34.1108
rwrist -3.59396
rhand -2.6628 -57.8898
rfingers 7.12502
rthumb 23.0375 -86.5329
lclavicle 1.49089e-015 2.3059e-014
lhumerus -33.1538 8.83121 78.4298
lradius 25.148
lwrist -1.73312
lhand -20.9868 -11.6691
lfingers 7.12502
lthumb 5.38706 18.2424
rfemur -25.1353 5.19728 20.3938
rtibia 7.32986
rfoot -18.2722 -2.12703
rtoes -25.3936
lfemur -24.0093 -7.64763 -22.2568
ltibia 7.31305
lfoot -7.55024 -1.57776
ltoes -15.6609
